M48
;DRILL file {KiCad 4.0.3+e1-6302~38~ubuntu16.04.1-stable} date Mon Oct 24 21:46:45 2016
;FORMAT={-:-/ absolute / metric / decimal}
FMAT,2
METRIC,TZ
T1C0.400
T2C0.813
T3C1.000
T4C1.016
T5C1.300
T6C3.048
%
G90
G05
M71
T1
X88.9Y-98.298
X89.662Y-87.884
X92.71Y-96.266
X92.71Y-107.696
X93.726Y-97.79
X95.504Y-93.218
X95.504Y-96.266
X99.314Y-111.506
X101.854Y-96.266
X101.854Y-103.886
X103.124Y-102.616
X104.902Y-104.902
X113.03Y-107.95
X117.094Y-111.252
X118.364Y-112.014
X119.38Y-111.506
T2
X118.11Y-84.836
X118.11Y-89.916
X125.73Y-84.836
X125.73Y-89.916
T3
X107.432Y-100.012
X109.982Y-97.487
X112.532Y-100.012
T4
X83.82Y-103.886
X83.82Y-106.426
X83.82Y-108.966
X83.82Y-111.506
X85.09Y-90.678
X85.09Y-93.218
X86.36Y-103.886
X86.36Y-106.426
X86.36Y-108.966
X86.36Y-111.506
X87.63Y-90.678
X87.63Y-93.218
X90.17Y-90.678
X90.17Y-93.218
X98.044Y-90.678
X98.044Y-93.218
T5
X105.918Y-85.852
X110.918Y-85.852
T6
X83.058Y-83.058
X83.058Y-117.094
X136.906Y-83.058
X136.906Y-117.094
T0
M30
